HIERARCHY
ROOT Hips
{
    OFFSET 0.0 0.0 0.0
    CHANNELS 6 Xposition Yposition Zposition Zrotation Xrotation Yrotation
    JOINT LeftHipJoint
    {
        OFFSET 0.1 0.0 0.0
        CHANNELS 3 Zrotation Xrotation Yrotation
        JOINT LeftUpLeg
        {
            OFFSET 122.57597663632745 0.0 0.0
            CHANNELS 3 Zrotation Xrotation Yrotation
            JOINT LeftLeg
            {
                OFFSET 0.0 0.0 -397.33083568532254
                CHANNELS 3 Zrotation Xrotation Yrotation
                JOINT LeftFoot
                {
                    OFFSET 0.0 0.0 -384.6027909073572
                    CHANNELS 3 Zrotation Xrotation Yrotation
                    End Site
                    {
                        OFFSET 0.0 -0.1 0.0
                    }
                }
            }
        }
    }
    JOINT LowerBack
    {
        OFFSET 0.0 0.0 0.1
        CHANNELS 3 Zrotation Xrotation Yrotation
        JOINT Spine
        {
            OFFSET 0.0 0.0 218.40737801711825
            CHANNELS 3 Zrotation Xrotation Yrotation
            JOINT Spine1
            {
                OFFSET 0.0 0.0 255.20520966638787
                CHANNELS 3 Zrotation Xrotation Yrotation
                JOINT LeftShoulder
                {
                    OFFSET 0.1 0.0 0.0
                    CHANNELS 3 Zrotation Xrotation Yrotation
                    JOINT LeftArm
                    {
                        OFFSET 145.09823452882893 0.0 0.0
                        CHANNELS 3 Zrotation Xrotation Yrotation
                        JOINT LeftForeArm
                        {
                            OFFSET 254.97673228421647 0.0 0.0
                            CHANNELS 3 Zrotation Xrotation Yrotation
                            JOINT LeftHand
                            {
                                OFFSET 237.90679405803118 0.0 0.0
                                CHANNELS 3 Zrotation Xrotation Yrotation
                                End Site
                                {
                                    OFFSET 0.1 0.0 0.0
                                }
                            }
                        }
                    }
                }
                JOINT Neck
                {
                    OFFSET 0.0 0.0 0.1
                    CHANNELS 3 Zrotation Xrotation Yrotation
                    JOINT Neck1
                    {
                        OFFSET 0.0 0.0 109.27703502655186
                        CHANNELS 3 Zrotation Xrotation Yrotation
                        End Site
                        {
                            OFFSET 0.0 0.0 114.06796889618181
                        }
                    }
                }
                JOINT RightShoulder
                {
                    OFFSET -0.1 0.0 0.0
                    CHANNELS 3 Zrotation Xrotation Yrotation
                    JOINT RightArm
                    {
                        OFFSET -145.09823452882893 0.0 0.0
                        CHANNELS 3 Zrotation Xrotation Yrotation
                        JOINT RightForeArm
                        {
                            OFFSET -254.97673228421647 0.0 0.0
                            CHANNELS 3 Zrotation Xrotation Yrotation
                            JOINT RightHand
                            {
                                OFFSET -237.90679405803118 0.0 0.0
                                CHANNELS 3 Zrotation Xrotation Yrotation
                                End Site
                                {
                                    OFFSET -0.1 0.0 0.0
                                }
                            }
                        }
                    }
                }
            }
        }
    }
    JOINT RightHipJoint
    {
        OFFSET -0.1 0.0 0.0
        CHANNELS 3 Zrotation Xrotation Yrotation
        JOINT RightUpLeg
        {
            OFFSET -122.57597663632745 0.0 0.0
            CHANNELS 3 Zrotation Xrotation Yrotation
            JOINT RightLeg
            {
                OFFSET 0.0 0.0 -397.33083568532254
                CHANNELS 3 Zrotation Xrotation Yrotation
                JOINT RightFoot
                {
                    OFFSET 0.0 0.0 -384.6027909073572
                    CHANNELS 3 Zrotation Xrotation Yrotation
                    End Site
                    {
                        OFFSET 0.0 -0.1 0.0
                    }
                }
            }
        }
    }
}
MOTION
Frames: 11
Frame Time: 0.03333333333333333
0.0 0.0 797.7603222721133 29.034702696939426 -6.946819445380096 2.30371384313368 0.0 0.0 0.0 0.8856535218414082 -15.200526098792821 0.2312837120665735 -2.464430357776535 38.15662521860604 2.9026200710540824 0.0 -1.987846675914698e-15 0.0 0.0 0.0 0.0 0.26402919426824406 -4.648860365216541 4.021868815930539 0.37205011810772975 1.3940669507782286e-15 7.90616658857007e-16 0.0 0.0 0.0 -28.591207374436518 12.503256693367256 76.02361503415179 -21.27018969351153 -6.243466496645394e-15 7.398332339874282e-15 0.0 0.0 3.1805546814635168e-15 0.0 0.0 0.0 -26.89213556313711 8.538548449014455 -10.713053891390176 0.0 0.0 0.0 61.835428413721615 -65.12515433241202 10.03300241448627 90.61604727096828 -1.5706443240009624e-14 6.8315119205020375e-15 3.975693351829396e-16 0.0 0.0 0.0 0.0 0.0 0.2101463429166403 -3.7539244758377976 -1.4900876018668143 -2.466436071034033 27.439223287447362 1.5136774176313565 0.0 0.0 -7.951386703658792e-16
0.0 0.0 797.7603222721133 29.180357143032417 -6.978185504555735 2.2704324295812865 -3.1805546814635168e-15 8.075627120903461e-16 2.2414367919785962e-32 0.9033141331166598 -15.451671476294136 0.29751211066717786 -2.4678071383804667 38.6759406583696 2.8872128589441735 0.0 0.0 -3.975693351829396e-16 -3.1805546814635168e-15 8.075627120903461e-16 2.2414367919785962e-32 0.25653323538348377 -4.505774413401549 4.090062664567829 0.21668277729979987 3.9681685546428333e-16 -3.9832039337077293e-16 0.0 0.0 0.0 -29.404923052947144 12.158311989732592 76.05748280037696 -21.13422118022474 8.857451201315987e-15 -1.2793301928418148e-14 0.0 0.0 -2.782985346280577e-15 0.0 0.0 0.0 -27.088335776952206 8.56589961666798 -10.840015658138608 0.0 0.0 0.0 63.27703611484628 -65.01476569822387 11.126992330408967 90.2387390847842 -2.244301375233924e-15 2.2536724293700296e-15 3.975693351829396e-16 0.0 0.0 -3.1805546814635168e-15 8.075627120903461e-16 2.2414367919785962e-32 0.21552061089510732 -3.8387374947245947 -1.4189999675498572 -2.4203089718090673 27.309043399718675 1.4686550789733341 0.0 -3.1805546814635168e-15 0.0
0.0 0.0 797.7603222721133 29.266109305156437 -6.94722393931283 2.386401487355951 -3.1805546814635168e-15 7.951386703658792e-16 2.2069531490250793e-32 0.878204335488432 -15.423261213903126 0.14896340291556381 -2.5059642743785027 38.56045361479137 2.8443350020977913 5.517382872562698e-33 -1.5902773407317584e-15 3.975693351829396e-16 -3.1805546814635168e-15 7.951386703658792e-16 2.2069531490250793e-32 0.2454874426806895 -4.427349610390605 4.073787507643974 0.20118450459761097 9.946198047490975e-16 3.9582372593738005e-16 0.0 0.0 0.0 -30.066293023185207 11.929437960739042 75.95779344815041 -21.10431170987984 5.709142870710459e-15 -1.3280358462627997e-14 0.0 0.0 3.1805546814635168e-15 0.0 0.0 0.0 -27.352473375959022 8.496287699926375 -11.051522465730912 0.0 0.0 0.0 64.24951145766656 -65.00964152806473 12.002599674220958 89.06444574230272 -9.069111839702454e-15 8.922222803059821e-15 0.0 0.0 0.0 -3.1805546814635168e-15 7.951386703658792e-16 2.2069531490250793e-32 0.20483337677589766 -3.749051885280191 -1.543935074081143 -2.4137257755582526 27.04678452863391 1.5044638529576966 0.0 0.0 -1.5902773407317584e-15
0.0 0.0 797.7603222721133 29.311737898320438 -7.133091725655378 2.4952693567486586 0.0 0.0 -3.975693351829396e-16 0.8105019429389285 -14.994215866620886 0.06064563155271038 -2.3946308441912016 38.02407071432924 2.7150054214767714 0.0 0.0 7.951386703658792e-16 0.0 0.0 -3.975693351829396e-16 0.22146335315809845 -4.203643841748718 3.9875328962128544 0.1433673925197545 -3.478231554801467e-15 4.01921321567523e-16 0.0 0.0 0.0 -30.965811107781875 11.843778882634563 75.98324311955625 -21.176057823955556 -2.5608140783924446e-15 5.04465850722059e-15 0.0 0.0 -1.987846675914698e-15 0.0 0.0 0.0 -27.537111067011185 8.520146235277611 -11.21146726522955 0.0 0.0 0.0 64.17039385117073 -65.56479865679034 11.788151852044592 89.24298424697884 2.2637999091285164e-15 -2.234085507139155e-15 7.951386703658792e-16 0.0 0.0 0.0 0.0 -3.975693351829396e-16 0.1783765312192737 -3.443086861143813 -1.6194067693327063 -2.3044073743865527 26.390893701721488 1.453253263301696 0.0 0.0 -3.975693351829396e-16
0.0 0.0 797.7603222721133 29.34017773251919 -7.35361970925912 2.453335497520277 -3.1805546814635168e-15 1.5902773407317584e-15 4.4139062980501586e-32 0.7827051184036071 -14.64660189168268 0.19939046593130172 -2.2406086156612868 37.82851222932768 2.59173123150189 0.0 0.0 3.975693351829396e-16 -3.1805546814635168e-15 1.5902773407317584e-15 4.4139062980501586e-32 0.20835366919318585 -3.997128703326933 4.059279770123707 0.17939197419739938 1.2896091932955905e-15 -1.5922981617607557e-15 0.0 0.0 0.0 -31.311541148063203 11.713329986108933 76.03885690208372 -21.036723846138777 -1.2946894739700836e-14 2.6173311034607483e-14 0.0 0.0 0.0 0.0 0.0 0.0 -27.637335762375326 8.541956237501617 -11.283563141571964 0.0 0.0 0.0 64.41104375435785 -65.96320859889133 12.124935967519606 88.82397945247214 -1.344707937702702e-14 -4.636228840720059e-15 -7.951386703658792e-16 0.0 0.0 -3.1805546814635168e-15 1.5902773407317584e-15 4.4139062980501586e-32 0.1567583706150776 -3.0645545900148767 -1.5054017067442569 -2.210241327833589 26.176374993481442 1.3949305534153242 -5.517382872562698e-33 -1.5902773407317584e-15 -3.975693351829396e-16
0.0 0.0 797.7603222721133 29.142206428078865 -7.240153572906715 2.5757477550055916 0.0 0.0 0.0 0.7527870492983142 -14.240966768001464 0.022681671754371736 -2.2895994371818857 37.09873941860014 2.6610015269455727 0.0 0.0 -3.975693351829396e-16 0.0 0.0 0.0 0.20968415858976147 -4.061641772385479 3.9806620315562715 0.2558212905346632 2.185738336888131e-15 -4.024499115901271e-16 0.0 0.0 0.0 -30.896085553279722 11.190090684822033 75.7780908952718 -21.133515097733717 3.189666999016876e-15 -1.709869519779559e-14 0.0 0.0 -2.782985346280577e-15 0.0 0.0 0.0 -27.490003234642955 8.537034099511132 -11.291897219620413 0.0 0.0 0.0 64.76510970422815 -66.10745177731128 12.998369976940367 87.3013926847452 2.11833568240291e-16 -8.993472699330473e-15 5.963540027744094e-16 -3.310429723537619e-32 -6.3611093629270335e-15 0.0 0.0 0.0 0.15160907221731498 -2.993084510790062 -1.5886792231897406 -2.178446661468774 25.57854723041828 1.43973363688161 0.0 0.0 -3.975693351829396e-16
0.0 0.0 797.7603222721133 29.15152070153553 -7.517489126568072 2.515328475127334 0.0 0.0 0.0 0.7363991804991165 -13.855415257436242 0.13322194237415258 -2.1931481129927985 36.80487962317141 2.5878146453467425 0.0 0.0 3.975693351829396e-16 0.0 0.0 0.0 0.2029156263344054 -3.90579417380289 4.172368846895835 0.43542726202655846 1.388461251225382e-15 -8.004203385471723e-16 0.0 0.0 0.0 -31.403317735824384 11.315636111003252 75.82622004345359 -20.89503773294886 -8.262358199537555e-17 -8.321752835506061e-15 0.0 0.0 1.1927080055488188e-15 0.0 0.0 0.0 -27.167038138653176 8.472442898530826 -11.278830487670795 0.0 0.0 0.0 64.16206581222936 -66.61907689707846 12.503261031829146 86.79778182476605 2.5623089858088903e-15 -1.1177729542459703e-14 7.951386703658792e-16 0.0 0.0 0.0 0.0 0.0 0.1330360199995182 -2.6171302347547374 -1.3963890557019576 -2.0693859185915735 25.31052200980075 1.358654398756295 0.0 0.0 3.975693351829396e-16
0.0 0.0 797.7603222721133 28.968855760917258 -7.530168418079637 2.452522635912998 0.0 0.0 0.0 0.7541074323800024 -13.981082464265178 0.250120935013221 -2.1750161811162014 37.25429699759586 2.4863085933899076 0.0 0.0 3.975693351829396e-16 0.0 0.0 0.0 0.20420643283463893 -3.874709918125522 4.3655147124857585 0.733150371519468 1.9878059911069034e-16 -1.271804484246774e-18 0.0 0.0 0.0 -30.842906241413615 11.168696062375393 75.8223649611422 -20.429143814278742 -4.266367449655333e-16 1.1335335028749505e-14 0.0 0.0 -2.782985346280577e-15 0.0 0.0 0.0 -26.745176765948592 8.339725199894538 -11.67048211856464 0.0 0.0 0.0 64.13269202185037 -66.8174136226302 12.715826799492541 85.70887459176433 -2.3316137144455777e-15 2.1632164867134287e-15 0.0 0.0 0.0 0.0 0.0 0.0 0.13907326776622433 -2.6959925111131144 -1.3660104949893435 -2.111763259129069 25.696664360243812 1.4921641030716408 -3.1805546814635168e-15 0.0 0.0
0.0 0.0 797.7603222721133 29.03905011299135 -7.598904405801025 2.4673568292210013 0.0 0.0 0.0 0.7558468448544106 -14.219105185884175 0.24979401184427316 -2.177515381573522 37.70794033678574 2.6022733722568545 0.0 0.0 -3.975693351829396e-16 0.0 0.0 0.0 0.1984556267118063 -3.8233826439709526 4.6293716549320525 0.9122648075655647 7.951134734623901e-16 -6.330041847538583e-18 0.0 0.0 0.0 -30.100361951926352 11.347531323679465 75.71727186105693 -20.16098610688289 2.826812369069699e-16 -1.067576088932331e-14 0.0 0.0 -7.951386703658792e-16 0.0 0.0 0.0 -26.07921504357662 8.337117824213141 -11.346778670920513 0.0 0.0 0.0 63.331101932761854 -66.75128942068554 12.846780112082804 83.65070337603626 1.3737006720987697e-15 1.584333135763949e-14 3.975693351829396e-16 0.0 0.0 0.0 0.0 0.0 0.143645636882995 -2.823859389940212 -1.438647792228782 -2.185510460233095 26.329272461154787 1.651287394690386 0.0 -1.5902773407317584e-15 0.0
0.0 0.0 797.7603222721133 28.821341986894762 -7.51552679271362 2.392174561544643 0.0 0.0 0.0 0.7799050828983797 -14.077125174257334 0.3636673316236249 -2.1768701868313975 37.551581173033746 2.5711896859764787 0.0 0.0 -3.975693351829396e-16 0.0 0.0 0.0 0.20942590020378168 -3.8687987398894728 4.6505764610017675 1.0732491727553775 1.593931118752745e-15 3.826577914982268e-16 0.0 0.0 0.0 -30.15331391443445 11.276347491831194 75.73088408537838 -20.654796278424964 8.823895205982943e-15 -1.2940252291859842e-14 0.0 0.0 3.1805546814635168e-15 0.0 0.0 0.0 -25.897154448509102 8.203726794485085 -11.359572130458824 0.0 0.0 0.0 63.03303976500107 -67.13677360622822 12.743739904004949 82.29334879134966 1.3161169772864315e-14 5.394642883957429e-15 -7.951386703658792e-16 0.0 0.0 0.0 0.0 0.0 0.14760797967109984 -2.7806742950443577 -1.328093348642566 -2.181971963632404 26.20777138701316 1.6519588722321217 0.0 0.0 1.5902773407317582e-15
0.0 0.0 797.7603222721133 28.5215912831324 -7.437217776358426 2.344880225079126 0.0 0.0 0.0 0.802193672550346 -14.225474560666093 0.40599062363250743 -2.194899452011312 37.623305462016496 2.727939913243357 2.758691436281349e-33 -3.9756933518293955e-16 7.951386703658791e-16 0.0 0.0 0.0 0.21694282450530397 -3.9379048364450697 4.638105701759048 1.1677133794130723 2.96541020275369e-15 -1.6205791450823073e-15 0.0 0.0 0.0 -29.59176279947503 11.202650049798805 75.8242299826526 -20.674045995791676 -4.1019937464339647e-16 2.2489199021368194e-15 0.0 0.0 -2.782985346280577e-15 0.0 0.0 0.0 -25.665908910195867 8.101194151183464 -11.235153215933517 0.0 0.0 0.0 62.58778817516596 -67.68810306217098 12.492652875796908 81.08158487846232 -5.1528338580115166e-15 -2.0704228237531754e-14 0.0 0.0 -6.3611093629270335e-15 0.0 0.0 0.0 0.15591247838029904 -2.881180782262004 -1.3168220205742283 -2.1911916876834896 26.08012465310427 1.7795180270086688 0.0 0.0 -7.951386703658792e-16
